<svg xmlns="http://www.w3.org/2000/svg" viewBox="0 0 74.5 73.03"><defs><style>.cls-1{fill:#dce1e7;}.cls-2{fill:#fff;}</style></defs><title>Recurso 325</title><g id="Capa_2" data-name="Capa 2"><g id="Capa_1-2" data-name="Capa 1"><rect class="cls-1" width="74.5" height="73.03" rx="16.46"/><path class="cls-2" d="M37.25,28A10.63,10.63,0,1,0,47.88,38.64,10.64,10.64,0,0,0,37.25,28Zm0,17a6.38,6.38,0,1,1,6.38-6.38A6.38,6.38,0,0,1,37.25,45Z"/><path class="cls-2" d="M54.26,23.76H46.89l-3-4.48a4.24,4.24,0,0,0-3.54-1.9H34.13a4.23,4.23,0,0,0-3.53,1.9l-3,4.48H20.24A4.26,4.26,0,0,0,16,28V51.4a4.26,4.26,0,0,0,4.25,4.25h34a4.26,4.26,0,0,0,4.25-4.25V28A4.26,4.26,0,0,0,54.26,23.76Zm-34,27.64V28h9.64l4.25-6.38h6.23L44.61,28h9.65V51.4Z"/></g></g></svg>