<?xml version="1.0" ?><svg id="Filled_Outline_1_" style="enable-background:new 0 0 64 64;" version="1.1" viewBox="0 0 64 64" xml:space="preserve" xmlns="http://www.w3.org/2000/svg" xmlns:xlink="http://www.w3.org/1999/xlink"><title/><desc/><style type="text/css">
	.st0{fill:#18C29C;}
	.st1{fill:#18A596;}
	.st2{fill:#FFBB2C;}
	.st3{fill:#FFD18B;}
	.st4{fill:#272A56;}
	.st5{fill:#FF7BAC;}
	.st6{fill:#FD58A1;}
	.st7{fill:none;}
	.st8{fill:#FFD8B1;}
	.st9{fill:#FFFDE9;}
	.st10{fill:#FFCAA9;}
	.st11{fill:#8C6239;}
	.st12{fill:#ECECD8;}
	.st13{fill:#96C6EE;}
	.st14{fill:#29ABE2;}
	.st15{fill:#A67C52;}
	.st16{fill:#CCCCCC;}
</style><g><g><g><line class="st7" x1="43" x2="46" y1="35" y2="35"/></g><path class="st8" d="M26.95,9.636l-4.243-4.243c-3.124-3.124-8.19-3.124-11.314,0l0,0c-3.124,3.124-3.124,8.19,0,11.314    l4.243,4.243L26.95,9.636z"/><path class="st9" d="M24.121,12.464l-4.243-4.243c-1.562-1.562-4.095-1.562-5.657,0l0,0c-1.562,1.562-1.562,4.095,0,5.657    l4.243,4.243L24.121,12.464z"/><path class="st8" d="M37.05,9.636l4.243-4.243c3.124-3.124,8.19-3.124,11.314,0l0,0c3.124,3.124,3.124,8.19,0,11.314l-4.243,4.243    L37.05,9.636z"/><path class="st9" d="M39.879,12.464l4.243-4.243c1.562-1.562,4.095-1.562,5.657,0l0,0c1.562,1.562,1.562,4.095,0,5.657    l-4.243,4.243L39.879,12.464z"/><polygon class="st10" points="42,31 22,31 17,61 47,61   "/><circle class="st8" cx="32" cy="21" r="18"/><path class="st10" d="M32,3c-9.94,0-18,8.06-18,18s8.06,18,18,18s18-8.06,18-18S41.94,3,32,3z M32,33c-7.732,0-14-6.268-14-14    S24.268,5,32,5s14,6.268,14,14S39.732,33,32,33z"/><ellipse class="st9" cx="32" cy="28" rx="10" ry="7"/><ellipse class="st11" cx="32" cy="22" rx="4" ry="3"/><path class="st5" d="M44,43L32,55L20,43c-3.314-3.314-3.314-8.686,0-12l0,0c3.314-3.314,8.686-3.314,12,0l0,0l0,0    c3.314-3.314,8.686-3.314,12,0l0,0C47.314,34.314,47.314,39.686,44,43z"/><circle class="st9" cx="24" cy="17" r="2"/><circle class="st9" cx="40" cy="17" r="2"/><path class="st8" d="M17,43L17,43c-4.418,0-8,3.582-8,8v2c0,4.418,3.582,8,8,8h0c4.418,0,8-3.582,8-8v-2    C25,46.582,21.418,43,17,43z"/><path class="st9" d="M17,47L17,47c-2.209,0-4,1.791-4,4v2c0,2.209,1.791,4,4,4h0c2.209,0,4-1.791,4-4v-2    C21,48.791,19.209,47,17,47z"/><path class="st8" d="M47,43L47,43c-4.418,0-8,3.582-8,8v2c0,4.418,3.582,8,8,8h0c4.418,0,8-3.582,8-8v-2    C55,46.582,51.418,43,47,43z"/><path class="st9" d="M47,47L47,47c-2.209,0-4,1.791-4,4v2c0,2.209,1.791,4,4,4h0c2.209,0,4-1.791,4-4v-2    C51,48.791,49.209,47,47,47z"/><g><g><path class="st6" d="M20,43c6.633,0,12-5.367,12-12l0,0c3.314-3.314,8.686-3.314,12,0l0,0c3.314,3.314,3.314,8.686,0,12L32,55      L20,43z"/></g></g><g><path class="st8" d="M35,40L35,40c0,2.761,2.239,5,5,5h1c4.418,0,8-3.582,8-8v0c0-1.105-0.895-2-2-2h-7     C37.239,35,35,37.239,35,40z"/></g><g><path class="st8" d="M29,40L29,40c0,2.761-2.239,5-5,5h-1c-4.418,0-8-3.582-8-8v0c0-1.105,0.895-2,2-2h7     C26.761,35,29,37.239,29,40z"/></g><g><path class="st10" d="M29,40L29,40c0,2.761-2.239,5-5,5h-1c-4.418,0-8-3.582-8-8v0l3.466,1.733C20.133,39.566,21.97,40,23.833,40     H29z"/></g><g><path class="st10" d="M35,40L35,40c0,2.761,2.239,5,5,5h1c4.418,0,8-3.582,8-8v0l-3.466,1.733C43.867,39.566,42.03,40,40.167,40     H35z"/></g></g><g><path class="st4" d="M24,20c1.654,0,3-1.346,3-3s-1.346-3-3-3s-3,1.346-3,3S22.346,20,24,20z M24,16c0.551,0,1,0.449,1,1    s-0.449,1-1,1s-1-0.449-1-1S23.449,16,24,16z"/><path class="st4" d="M40,20c1.654,0,3-1.346,3-3s-1.346-3-3-3s-3,1.346-3,3S38.346,20,40,20z M40,16c0.552,0,1,0.449,1,1    s-0.448,1-1,1s-1-0.449-1-1S39.448,16,40,16z"/><path class="st4" d="M22,51c0-2.757-2.243-5-5-5s-5,2.243-5,5v2c0,2.757,2.243,5,5,5s5-2.243,5-5V51z M20,53c0,1.654-1.346,3-3,3    s-3-1.346-3-3v-2c0-1.654,1.346-3,3-3s3,1.346,3,3V53z"/><path class="st4" d="M48.39,42.119C49.423,40.627,50,38.847,50,37c0-1.654-1.346-3-3-3h-0.023    c-0.102-0.307-0.219-0.607-0.352-0.901C49.441,29.697,51,25.437,51,21c0-0.409-0.036-0.809-0.061-1.211l2.375-2.375    c3.509-3.509,3.509-9.219,0-12.728c-1.699-1.7-3.96-2.636-6.363-2.636c-2.204,0-4.282,0.795-5.923,2.236    C38.34,2.829,35.265,2,32,2s-6.34,0.829-9.027,2.286C21.332,2.845,19.254,2.05,17.05,2.05c-2.404,0-4.664,0.936-6.364,2.636    c-1.7,1.7-2.636,3.96-2.636,6.364s0.936,4.664,2.636,6.364l2.375,2.375C13.036,20.192,13,20.591,13,21    c0,4.436,1.559,8.697,4.375,12.099c-0.133,0.294-0.25,0.594-0.353,0.901H17c-1.654,0-3,1.346-3,3c0,1.847,0.577,3.626,1.61,5.119    C11.307,42.79,8,46.511,8,51v2c0,4.962,4.038,9,9,9h30c4.963,0,9-4.038,9-9v-2C56,46.511,52.694,42.791,48.39,42.119z M48,37    c0,1.931-0.806,3.77-2.209,5.091c-1.651,0.223-3.162,0.891-4.404,1.885C41.258,43.983,41.131,44,41,44h-1c-2.206,0-4-1.794-4-4    s1.794-4,4-4h7C47.552,36,48,36.449,48,37z M49.21,13.001c-0.821-1.76-1.902-3.369-3.197-4.787    c1.042-0.341,2.231-0.112,3.058,0.714C50.187,10.045,50.225,11.824,49.21,13.001z M46.95,4.05c1.869,0,3.627,0.728,4.949,2.05    c2.729,2.729,2.729,7.17,0,9.899l-1.271,1.271c-0.152-0.762-0.358-1.503-0.599-2.229l0.456-0.456c1.949-1.95,1.949-5.122,0-7.071    c-1.624-1.623-4.087-1.874-5.993-0.795c-0.533-0.467-1.086-0.91-1.669-1.316C44.015,4.53,45.444,4.05,46.95,4.05z M12.101,16    c-1.322-1.322-2.05-3.08-2.05-4.95s0.728-3.627,2.05-4.95s3.08-2.05,4.95-2.05c1.506,0,2.935,0.479,4.127,1.354    c-0.583,0.406-1.136,0.849-1.67,1.316c-1.907-1.08-4.37-0.828-5.993,0.794c-1.949,1.949-1.949,5.122,0,7.071l0.456,0.456    c-0.241,0.726-0.447,1.468-0.599,2.23L12.101,16z M14.79,13.002c-1.015-1.177-0.977-2.956,0.139-4.073    c0.826-0.827,2.016-1.057,3.058-0.715C16.692,9.632,15.611,11.241,14.79,13.002z M15,21c0-9.374,7.626-17,17-17s17,7.626,17,17    c0,3.724-1.221,7.315-3.452,10.258c-0.258-0.338-0.538-0.661-0.841-0.965c-0.547-0.547-1.149-1.004-1.783-1.389    C42.969,28.605,43,28.304,43,28c0-3.117-2.451-5.914-6.277-7.228C35.935,19.068,33.628,18,32,18c-1.628,0-3.935,1.068-4.723,2.772    C23.451,22.086,21,24.883,21,28c0,0.301,0.03,0.604,0.076,0.904c-0.634,0.385-1.236,0.842-1.783,1.389    c-0.303,0.303-0.584,0.627-0.841,0.965C16.221,28.315,15,24.724,15,21z M23,28.004c0-0.001,0-0.003,0-0.004    c0-2.049,1.602-3.95,4.168-5.05c0.533,1.524,2.275,2.591,3.832,2.93V28h2v-2.12c1.557-0.34,3.299-1.406,3.832-2.93    C39.398,24.05,41,25.951,41,28c0,0.001,0,0.003,0,0.004c-3.013-0.999-6.432-0.45-9,1.649C29.433,27.554,26.014,27.005,23,28.004z     M32,24c-1.239,0-3-1.034-3-2s1.761-2,3-2s3,1.034,3,2S33.239,24,32,24z M20.707,31.707c2.919-2.918,7.667-2.918,10.586,0    c0.391,0.391,1.023,0.391,1.414,0c2.918-2.918,7.668-2.918,10.586,0c0.663,0.663,1.18,1.445,1.552,2.293H40c-3.309,0-6,2.691-6,6    c0,3.152,2.444,5.738,5.536,5.977c-0.041,0.06-0.074,0.125-0.113,0.186L32,53.586l-7.423-7.423    c-0.039-0.061-0.073-0.127-0.114-0.187C27.556,45.738,30,43.152,30,40c0-3.309-2.691-6-6-6h-4.844    C19.528,33.152,20.044,32.37,20.707,31.707z M17,36h7c2.206,0,4,1.794,4,4s-1.794,4-4,4h-1c-0.131,0-0.258-0.017-0.388-0.024    c-1.242-0.995-2.753-1.662-4.404-1.885C16.806,40.77,16,38.931,16,37C16,36.449,16.449,36,17,36z M10,53v-2c0-3.86,3.14-7,7-7    s7,3.14,7,7v2c0,3.86-3.14,7-7,7S10,56.86,10,53z M22.644,60C24.688,58.349,26,55.826,26,53v-2c0-0.208-0.017-0.412-0.031-0.617    l5.324,5.324C31.48,55.895,31.735,56,32,56s0.52-0.105,0.707-0.293l5.324-5.325C38.017,50.587,38,50.792,38,51v2    c0,2.826,1.312,5.349,3.356,7H22.644z M54,53c0,3.86-3.141,7-7,7s-7-3.14-7-7v-2c0-3.86,3.141-7,7-7s7,3.14,7,7V53z"/><path class="st4" d="M47,46c-2.757,0-5,2.243-5,5v2c0,2.757,2.243,5,5,5s5-2.243,5-5v-2C52,48.243,49.757,46,47,46z M50,53    c0,1.654-1.346,3-3,3s-3-1.346-3-3v-2c0-1.654,1.346-3,3-3s3,1.346,3,3V53z"/></g></g></svg>